<svg width="60" height="50" viewBox="0 5 60 30" fill="#000" xmlns="http://www.w3.org/2000/svg">
<path d="M31.1538 25.3846V18.4615H35.7692V25.3846H31.1538Z" fill="#000"></path>
<path d="M54.2307 25.3846V18.4615H58.8461V25.3846H54.2307Z" fill="#000"></path>
<path d="M12.6923 11.5385L10.3846 9.23079L9.23074 8.07692L10.3846 6.92305L15.6759 1.63178C16.7207 0.586971 18.1378 0 19.6154 0C21.0929 0 22.5101 0.586968 23.5548 1.63178L30 8.07692L26.5384 11.5385L20.8392 5.83922C20.459 5.45905 20.269 5.26899 20.0569 5.18116C19.7742 5.06404 19.4565 5.06404 19.1738 5.18116C18.9617 5.26899 18.7717 5.45905 18.3915 5.83922L12.6923 11.5385Z" fill="#000"></path>
<path d="M15 13.848V10.2437H24.2308V13.848H15Z" fill="#000"></path>
<path fill-rule="evenodd" clip-rule="evenodd" d="M11.5384 15.5769V30H21.2934C23.5332 30 24.6531 30 25.5086 29.5641C26.2611 29.1807 26.8729 28.5689 27.2564 27.8164C27.6923 26.9609 27.6923 25.841 27.6923 23.6012V15.5769H11.5384ZM16.1538 19.6154V25.3846H22.2115C22.4803 25.3846 22.6146 25.3846 22.7208 25.3408C22.862 25.2822 22.9744 25.1698 23.033 25.0285C23.0769 24.9224 23.0769 24.7881 23.0769 24.5192V19.6154H16.1538Z" fill="#000"></path>
<path d="M33.4615 9.23077V4.61538H42.6923V0H47.3077V4.61538H56.5385V9.23077H47.3077V11.5385H58.8461V16.1538H51.9231V21.9231C51.9231 23.5892 51.9231 24.4223 51.7661 25.1114C51.2294 27.467 49.39 29.3063 47.0345 29.843C46.3454 30 45.5123 30 43.8462 30V25.3846C44.9425 25.3846 45.4907 25.3846 45.9213 25.2004C46.4617 24.9692 46.8923 24.5386 47.1235 23.9982C47.3077 23.5676 47.3077 23.0194 47.3077 21.9231V16.1538H42.6923V19.9655C42.6923 25.3846 40.3186 29.4 39.8624 30L35.7692 27.6923C37.6435 24.3226 38.0769 22.3846 38.0769 19.6154V16.1538H31.1538V11.5385H42.6923V9.23077H33.4615Z" fill="#000"></path>
<path fill-rule="evenodd" clip-rule="evenodd" d="M10.3846 9.23079L9.23074 8.07692L10.3846 6.92305V4.61539H0V26.5385H4.89992C6.81974 26.5385 7.77965 26.5385 8.51293 26.1648C9.15794 25.8362 9.68234 25.3118 10.011 24.6668C10.3846 23.9335 10.3846 22.9736 10.3846 21.0538V9.23079ZM4.27235 9.23078H6.11226V21.0577C6.11226 21.3265 6.11226 21.4609 6.06835 21.567C6.0098 21.7083 5.89749 21.8206 5.75612 21.8792C5.6501 21.9231 5.5157 21.9231 5.24688 21.9231H4.27235V9.23078Z" fill="#000"></path>
</svg>