<svg width="139" height="32" viewBox="0 0 139 32" fill="none" xmlns="http://www.w3.org/2000/svg">
<path d="M55.9863 4.29917C55.9868 4.13381 56.1209 4 56.2863 4H57.4433C57.676 4 57.8876 4.13447 57.9865 4.34505L60.0901 8.82652C60.1262 8.90339 60.2356 8.90315 60.2713 8.82613L62.3499 4.34742C62.4482 4.13555 62.6606 4 62.8941 4H64.0485C64.2142 4 64.3485 4.13431 64.3485 4.3V13.2856C64.3485 13.4513 64.2142 13.5856 64.0485 13.5856H63.1434C62.9779 13.5856 62.8437 13.4517 62.8434 13.2862L62.8315 7.11716C62.8313 7.01045 62.6865 6.97821 62.641 7.07475L60.7681 11.0529C60.7187 11.1581 60.6129 11.2252 60.4967 11.2252H59.8379C59.7222 11.2252 59.6169 11.1587 59.5671 11.0542L57.6678 7.0694C57.622 6.97332 57.4777 7.00579 57.4775 7.11224L57.4656 13.2862C57.4653 13.4517 57.3311 13.5856 57.1656 13.5856H56.2613C56.0953 13.5856 55.9609 13.4508 55.9613 13.2848L55.9863 4.29917Z" fill="#122034"/>
<path d="M67.0051 4.3C67.0051 4.13431 67.1394 4 67.3051 4H68.2096C68.3753 4 68.5096 4.13431 68.5096 4.3V13.2856C68.5096 13.4513 68.3753 13.5856 68.2096 13.5856H67.3051C67.1394 13.5856 67.0051 13.4513 67.0051 13.2856V4.3Z" fill="#122034"/>
<path d="M71.1715 4.3C71.1715 4.13431 71.3058 4 71.4715 4H72.376C72.5417 4 72.676 4.13431 72.676 4.3V11.9796C72.676 12.1453 72.8104 12.2796 72.976 12.2796H77.2624C77.4281 12.2796 77.5624 12.4139 77.5624 12.5796V13.2856C77.5624 13.4513 77.4281 13.5856 77.2624 13.5856H71.4715C71.3058 13.5856 71.1715 13.4513 71.1715 13.2856V4.3Z" fill="#122034"/>
<path d="M79.8237 4.3C79.8237 4.13431 79.958 4 80.1237 4H81.0282C81.1939 4 81.3282 4.13431 81.3282 4.3V11.9796C81.3282 12.1453 81.4625 12.2796 81.6282 12.2796H85.9145C86.0802 12.2796 86.2145 12.4139 86.2145 12.5796V13.2856C86.2145 13.4513 86.0802 13.5856 85.9145 13.5856H80.1237C79.958 13.5856 79.8237 13.4513 79.8237 13.2856V4.3Z" fill="#122034"/>
<path d="M88.6059 4.3C88.6059 4.13431 88.7402 4 88.9059 4H94.8832C95.0488 4 95.1832 4.13431 95.1832 4.3V5.00604C95.1832 5.17173 95.0488 5.30604 94.8832 5.30604H90.4104C90.2447 5.30604 90.1104 5.44036 90.1104 5.60604V8.02182C90.1104 8.07705 90.1552 8.12182 90.2104 8.12182H94.284C94.4497 8.12182 94.584 8.25613 94.584 8.42182V9.12786C94.584 9.29354 94.4497 9.42786 94.284 9.42786H90.2104C90.1552 9.42786 90.1104 9.47263 90.1104 9.52786V12.0148C90.1104 12.1808 90.2452 12.3152 90.4111 12.3148L94.8824 12.3043C95.0484 12.3039 95.1832 12.4383 95.1832 12.6043V13.3085C95.1832 13.4746 95.0482 13.6091 94.8821 13.6085L88.9048 13.5867C88.7396 13.5861 88.6059 13.452 88.6059 13.2867V4.3Z" fill="#122034"/>
<path d="M97.6333 4.3C97.6333 4.13431 97.7676 4 97.9333 4H98.7827C98.9946 4 99.1907 4.11172 99.2988 4.29394L102.733 10.0847C102.785 10.1722 102.919 10.1354 102.919 10.0337V4.3C102.919 4.13431 103.053 4 103.219 4H104.124C104.289 4 104.424 4.13431 104.424 4.3V13.2856C104.424 13.4513 104.289 13.5856 104.124 13.5856H103.406C103.195 13.5856 102.999 13.4748 102.891 13.2937L99.3369 7.35399C99.2848 7.2669 99.1511 7.30384 99.1511 7.40533V13.2856C99.1511 13.4513 99.0168 13.5856 98.8511 13.5856H97.9333C97.7676 13.5856 97.6333 13.4513 97.6333 13.2856V4.3Z" fill="#122034"/>
<path d="M107.001 4.3C107.001 4.13431 107.135 4 107.301 4H108.15C108.362 4 108.558 4.11172 108.666 4.29394L112.1 10.0847C112.152 10.1722 112.286 10.1354 112.286 10.0337V4.3C112.286 4.13431 112.421 4 112.586 4H113.491C113.657 4 113.791 4.13431 113.791 4.3V13.2856C113.791 13.4513 113.657 13.5856 113.491 13.5856H112.773C112.562 13.5856 112.366 13.4748 112.258 13.2937L108.704 7.35399C108.652 7.2669 108.518 7.30384 108.518 7.40533V13.2856C108.518 13.4513 108.384 13.5856 108.218 13.5856H107.301C107.135 13.5856 107.001 13.4513 107.001 13.2856V4.3Z" fill="#122034"/>
<path d="M116.448 4.3C116.448 4.13431 116.582 4 116.748 4H117.652C117.818 4 117.952 4.13431 117.952 4.3V13.2856C117.952 13.4513 117.818 13.5856 117.652 13.5856H116.748C116.582 13.5856 116.448 13.4513 116.448 13.2856V4.3Z" fill="#122034"/>
<path d="M120.813 12.4703C120.686 12.3565 120.614 12.1944 120.614 12.0243V4.3C120.614 4.13431 120.749 4 120.914 4H121.819C121.984 4 122.119 4.13431 122.119 4.3V11.5212C122.119 11.6072 122.156 11.6891 122.22 11.7461L122.739 12.2045C122.794 12.2529 122.865 12.2796 122.938 12.2796H125.081C125.154 12.2796 125.225 12.2529 125.279 12.2045L125.799 11.7461C125.863 11.6891 125.9 11.6072 125.9 11.5212V4.3C125.9 4.13431 126.034 4 126.2 4H127.104C127.27 4 127.404 4.13431 127.404 4.3V12.0243C127.404 12.1944 127.332 12.3565 127.206 12.4703L126.138 13.4316C126.027 13.5308 125.885 13.5856 125.736 13.5856H122.282C122.134 13.5856 121.991 13.5308 121.881 13.4316L120.813 12.4703Z" fill="#122034"/>
<path d="M130.098 4.29917C130.099 4.13381 130.233 4 130.398 4H131.555C131.788 4 132 4.13447 132.098 4.34505L134.202 8.82652C134.238 8.90339 134.348 8.90315 134.383 8.82613L136.462 4.34742C136.56 4.13555 136.773 4 137.006 4H138.161C138.326 4 138.461 4.13431 138.461 4.3V13.2856C138.461 13.4513 138.326 13.5856 138.161 13.5856H137.255C137.09 13.5856 136.956 13.4517 136.955 13.2862L136.944 7.11716C136.943 7.01045 136.799 6.97821 136.753 7.07475L134.88 11.0529C134.831 11.1581 134.725 11.2252 134.609 11.2252H133.95C133.834 11.2252 133.729 11.1587 133.679 11.0542L131.78 7.0694C131.734 6.97332 131.59 7.00579 131.589 7.11224L131.578 13.2862C131.577 13.4517 131.443 13.5856 131.278 13.5856H130.373C130.207 13.5856 130.073 13.4508 130.073 13.2848L130.098 4.29917Z" fill="#122034"/>
<path d="M56.1591 26.8847C56.0327 26.7709 55.9605 26.6088 55.9605 26.4387V25.1607C55.9605 24.995 56.0948 24.8607 56.2605 24.8607H57.155C57.3194 24.8607 57.4532 24.993 57.455 25.1574L57.4635 25.9256C57.4645 26.0105 57.5013 26.091 57.565 26.1472L58.0856 26.6069C58.1404 26.6553 58.211 26.682 58.2842 26.682H60.4271C60.5003 26.682 60.5709 26.6553 60.6257 26.6069L61.1448 26.1485C61.2093 26.0915 61.2463 26.0096 61.2463 25.9236V25.0939C61.2463 24.9803 61.1822 24.8765 61.0806 24.8257L56.2918 22.4266C56.0887 22.3248 55.9605 22.1172 55.9605 21.8901V19.9757C55.9605 19.8056 56.0327 19.6435 56.1591 19.5297L57.2273 18.5684C57.3375 18.4692 57.4805 18.4144 57.6287 18.4144H61.0826C61.2308 18.4144 61.3738 18.4692 61.484 18.5684L62.5521 19.5297C62.6786 19.6435 62.7508 19.8056 62.7508 19.9757V21.2417C62.7508 21.4074 62.6165 21.5417 62.4508 21.5417H61.5463C61.3806 21.5417 61.2463 21.4074 61.2463 21.2417V20.4788C61.2463 20.3928 61.2093 20.3109 61.1448 20.2539L60.6257 19.7955C60.5709 19.7471 60.5003 19.7204 60.4271 19.7204H58.2842C58.211 19.7204 58.1404 19.7471 58.0856 19.7955L57.5665 20.2539C57.502 20.3109 57.465 20.3928 57.465 20.4788V21.3085C57.465 21.4221 57.5291 21.5259 57.6306 21.5767L62.4195 23.9758C62.6226 24.0776 62.7508 24.2852 62.7508 24.5123V26.4387C62.7508 26.6088 62.6786 26.7709 62.5521 26.8847L61.484 27.846C61.3738 27.9451 61.2308 28 61.0826 28H57.6287C57.4805 28 57.3375 27.9451 57.2273 27.846L56.1591 26.8847Z" fill="#122034"/>
<path d="M65.4188 18.7144C65.4188 18.5487 65.5531 18.4144 65.7188 18.4144H66.6233C66.789 18.4144 66.9233 18.5487 66.9233 18.7144V27.7C66.9233 27.8657 66.789 28 66.6233 28H65.7188C65.5531 28 65.4188 27.8657 65.4188 27.7V18.7144Z" fill="#122034"/>
<path d="M69.5853 18.7144C69.5853 18.5487 69.7196 18.4144 69.8853 18.4144H70.7898C70.9554 18.4144 71.0898 18.5487 71.0898 18.7144V26.394C71.0898 26.5596 71.2241 26.694 71.3898 26.694H75.6761C75.8418 26.694 75.9761 26.8283 75.9761 26.994V27.7C75.9761 27.8657 75.8418 28 75.6761 28H69.8853C69.7196 28 69.5853 27.8657 69.5853 27.7V18.7144Z" fill="#122034"/>
<path d="M78.3675 18.7144C78.3675 18.5487 78.5018 18.4144 78.6675 18.4144H79.572C79.7377 18.4144 79.872 18.5487 79.872 18.7144V27.7C79.872 27.8657 79.7377 28 79.572 28H78.6675C78.5018 28 78.3675 27.8657 78.3675 27.7V18.7144Z" fill="#122034"/>
<path d="M82.7325 26.8847C82.6061 26.7709 82.5339 26.6088 82.5339 26.4387V19.9757C82.5339 19.8056 82.6061 19.6435 82.7325 19.5297L83.8007 18.5684C83.9109 18.4692 84.0538 18.4144 84.202 18.4144H87.656C87.8042 18.4144 87.9472 18.4692 88.0574 18.5684L89.1255 19.5297C89.252 19.6435 89.3242 19.8056 89.3242 19.9757V21.2896C89.3242 21.4553 89.1898 21.5896 89.0242 21.5896H88.1196C87.954 21.5896 87.8196 21.4553 87.8196 21.2896V20.4788C87.8196 20.3928 87.7827 20.3109 87.7182 20.2539L87.1991 19.7955C87.1442 19.7471 87.0736 19.7204 87.0005 19.7204H84.8575C84.7844 19.7204 84.7138 19.7471 84.659 19.7955L84.1398 20.2539C84.0753 20.3109 84.0384 20.3928 84.0384 20.4788V25.9373C84.0384 26.0223 84.0745 26.1034 84.1377 26.1603L84.6585 26.6289C84.7136 26.6785 84.7851 26.7059 84.8592 26.7059H86.9989C87.073 26.7059 87.1445 26.6785 87.1995 26.6289L87.7203 26.1603C87.7835 26.1034 87.8196 26.0223 87.8196 25.9373V25.1248C87.8196 24.9591 87.954 24.8248 88.1196 24.8248H89.0242C89.1898 24.8248 89.3242 24.9591 89.3242 25.1248V26.4387C89.3242 26.6088 89.252 26.7709 89.1255 26.8847L88.0574 27.846C87.9472 27.9451 87.8042 28 87.656 28H84.202C84.0538 28 83.9109 27.9451 83.8007 27.846L82.7325 26.8847Z" fill="#122034"/>
<path d="M92.1908 26.8847C92.0644 26.7709 91.9922 26.6088 91.9922 26.4387V19.9757C91.9922 19.8056 92.0644 19.6435 92.1908 19.5297L93.259 18.5684C93.3692 18.4692 93.5122 18.4144 93.6604 18.4144H97.1143C97.2625 18.4144 97.4055 18.4692 97.5157 18.5684L98.5838 19.5297C98.7103 19.6435 98.7825 19.8056 98.7825 19.9757V26.4387C98.7825 26.6088 98.7103 26.7709 98.5838 26.8847L97.5157 27.846C97.4055 27.9451 97.2625 28 97.1143 28H93.6604C93.5122 28 93.3692 27.9451 93.259 27.846L92.1908 26.8847ZM96.4572 26.7059C96.5313 26.7059 96.6028 26.6785 96.6579 26.6289L97.1786 26.1603C97.2419 26.1034 97.278 26.0223 97.278 25.9373V20.4788C97.278 20.3928 97.241 20.3109 97.1765 20.2539L96.6574 19.7955C96.6026 19.7471 96.5319 19.7204 96.4588 19.7204H94.3159C94.2427 19.7204 94.1721 19.7471 94.1173 19.7955L93.5982 20.2539C93.5337 20.3109 93.4967 20.3928 93.4967 20.4788V25.9373C93.4967 26.0223 93.5328 26.1034 93.596 26.1603L94.1168 26.6289C94.1719 26.6785 94.2434 26.7059 94.3175 26.7059H96.4572Z" fill="#122034"/>
<path d="M101.371 18.7144C101.371 18.5487 101.505 18.4144 101.671 18.4144H102.52C102.732 18.4144 102.928 18.5261 103.036 18.7083L106.47 24.4991C106.522 24.5866 106.656 24.5498 106.656 24.4481V18.7144C106.656 18.5487 106.791 18.4144 106.956 18.4144H107.861C108.027 18.4144 108.161 18.5487 108.161 18.7144V27.7C108.161 27.8657 108.027 28 107.861 28H107.143C106.932 28 106.737 27.8891 106.628 27.7081L103.074 21.7684C103.022 21.6813 102.888 21.7182 102.888 21.8197V27.7C102.888 27.8657 102.754 28 102.588 28H101.671C101.505 28 101.371 27.8657 101.371 27.7V18.7144Z" fill="#122034"/>
<path d="M35.8141 8.10439H40.1044L29.6843 26.4263L35.2583 32L48.9605 7.90685V0.000262698L31.6794 0L16.6504 26.4258L22.2244 31.9996L35.8141 8.10439Z" fill="#122034"/>
<path d="M6.51693 8.10439L0 0H27.3894L9.19054 31.9996L3.61671 26.4258L14.0365 8.10439H6.51693Z" fill="#122034"/>
</svg>
